<svg width="200" height="340" viewBox="0 0 180 340" fill="none" xmlns="http://www.w3.org/2000/svg">
  <!-- Shoulder Joint -->
  <circle cx="45" cy="110" r="10" fill="#3a3e4a" stroke="#4a5568" stroke-width="3" />
  <!-- Upper Arm -->
  <rect x="30" y="120" width="30" height="80" rx="4" fill="#2a2e3a" stroke="#4a5568" stroke-width="3" />
  <!-- Mechanical Details Upper Arm -->
  <line x1="35" y1="140" x2="55" y2="140" stroke="#4a5568" stroke-width="1.5" />
  <line x1="35" y1="160" x2="55" y2="160" stroke="#4a5568" stroke-width="1.5" />
  <line x1="35" y1="180" x2="55" y2="180" stroke="#4a5568" stroke-width="1.5" />
  <!-- Elbow Joint -->
  <circle cx="45" cy="200" r="9" fill="#3a3e4a" stroke="#4a5568" stroke-width="3" />
  <circle cx="45" cy="200" r="4" fill="#2a2e3a" />
  <!-- Forearm -->
  <rect x="32" y="209" width="26" height="70" rx="4" fill="#2a2e3a" stroke="#4a5568" stroke-width="3" />
  <!-- Mechanical Details Forearm -->
  <rect x="36" y="220" width="18" height="8" rx="1" fill="#3a3e4a" />
  <rect x="36" y="245" width="18" height="8" rx="1" fill="#3a3e4a" />
  <!-- Wrist Joint -->
  <circle cx="45" cy="279" r="7" fill="#3a3e4a" stroke="#4a5568" stroke-width="2" />
  <circle cx="45" cy="279" r="3" fill="#2a2e3a" />
  <!-- Wrist Assembly -->
  <rect x="36" y="286" width="18" height="12" rx="2" fill="#2a2e3a" stroke="#4a5568" stroke-width="2" />
  <circle cx="40" cy="292" r="1.5" fill="#4a5568" />
  <circle cx="50" cy="292" r="1.5" fill="#4a5568" />
  <!-- Hand Base -->
  <rect x="34" y="298" width="22" height="8" rx="2" fill="#3a3e4a" stroke="#4a5568" stroke-width="2" />
  <!-- Three-finger Gripper Base -->
  <polygon points="45,306 37,312 53,312" fill="#2a2e3a" stroke="#4a5568" stroke-width="2" />
  <!-- Left Finger -->
  <path d="M 37 312 L 34 318 L 32 328 Q 32 331 34 331 L 37 331 Q 39 331 39 328 L 39 318 Z" fill="#2a2e3a"
    stroke="#4a5568" stroke-width="2" />
  <circle cx="35" cy="331" r="2.5" fill="#0ea5e9" opacity="0.6" />
  <!-- Center Finger -->
  <path d="M 43 312 L 43 326 Q 43 332 45 332 Q 47 332 47 326 L 47 312 Z" fill="#2a2e3a" stroke="#4a5568"
    stroke-width="2" />
  <circle cx="45" cy="332" r="2.5" fill="#0ea5e9" opacity="0.6" />
  <!-- Right Finger -->
  <path d="M 53 312 L 56 318 L 58 328 Q 58 331 56 331 L 53 331 Q 51 331 51 328 L 51 318 Z" fill="#2a2e3a"
    stroke="#4a5568" stroke-width="2" />
  <circle cx="55" cy="331" r="2.5" fill="#0ea5e9" opacity="0.6" />
</svg>