<svg width="200" height="340" viewBox="0 0 200 340" fill="none" xmlns="http://www.w3.org/2000/svg">
  <!-- Shoulder Joint -->
  <circle cx="155" cy="110" r="10" fill="#3a3e4a" stroke="#4a5568" stroke-width="3"/>
  <!-- Upper Arm -->
  <rect x="140" y="120" width="30" height="80" rx="4" fill="#2a2e3a" stroke="#4a5568" stroke-width="3"/>
  <!-- Mechanical Details Upper Arm -->
  <line x1="145" y1="140" x2="165" y2="140" stroke="#4a5568" stroke-width="1.5"/>
  <line x1="145" y1="160" x2="165" y2="160" stroke="#4a5568" stroke-width="1.5"/>
  <line x1="145" y1="180" x2="165" y2="180" stroke="#4a5568" stroke-width="1.5"/>
  <!-- Elbow Joint -->
  <circle cx="155" cy="200" r="9" fill="#3a3e4a" stroke="#4a5568" stroke-width="3"/>
  <circle cx="155" cy="200" r="4" fill="#2a2e3a"/>
  <!-- Forearm -->
  <rect x="142" y="209" width="26" height="70" rx="4" fill="#2a2e3a" stroke="#4a5568" stroke-width="3"/>
  <!-- Mechanical Details Forearm -->
  <rect x="146" y="220" width="18" height="8" rx="1" fill="#3a3e4a"/>
  <rect x="146" y="245" width="18" height="8" rx="1" fill="#3a3e4a"/>
  <!-- Wrist Joint -->
  <circle cx="155" cy="279" r="7" fill="#3a3e4a" stroke="#4a5568" stroke-width="2"/>
  <circle cx="155" cy="279" r="3" fill="#2a2e3a"/>
  <!-- Wrist Assembly -->
  <rect x="146" y="286" width="18" height="12" rx="2" fill="#2a2e3a" stroke="#4a5568" stroke-width="2"/>
  <circle cx="150" cy="292" r="1.5" fill="#4a5568"/>
  <circle cx="160" cy="292" r="1.5" fill="#4a5568"/>
  <!-- Hand Base -->
  <rect x="144" y="298" width="22" height="8" rx="2" fill="#3a3e4a" stroke="#4a5568" stroke-width="2"/>
  <!-- Three-finger Gripper Base -->
  <polygon points="155,306 147,312 163,312" fill="#2a2e3a" stroke="#4a5568" stroke-width="2"/>
  <!-- Left Finger -->
  <path d="M 147 312 L 144 318 L 142 328 Q 142 331 144 331 L 147 331 Q 149 331 149 328 L 149 318 Z" fill="#2a2e3a" stroke="#4a5568" stroke-width="2"/>
  <circle cx="145" cy="331" r="2.5" fill="#0ea5e9" opacity="0.6"/>
  <!-- Center Finger -->
  <path d="M 153 312 L 153 326 Q 153 332 155 332 Q 157 332 157 326 L 157 312 Z" fill="#2a2e3a" stroke="#4a5568" stroke-width="2"/>
  <circle cx="155" cy="332" r="2.5" fill="#0ea5e9" opacity="0.6"/>
  <!-- Right Finger -->
  <path d="M 163 312 L 166 318 L 168 328 Q 168 331 166 331 L 163 331 Q 161 331 161 328 L 161 318 Z" fill="#2a2e3a" stroke="#4a5568" stroke-width="2"/>
  <circle cx="165" cy="332" r="2.5" fill="#0ea5e9" opacity="0.6"/>
</svg>
